<svg xmlns="http://www.w3.org/2000/svg" xmlns:xlink="http://www.w3.org/1999/xlink" width="500" zoomAndPan="magnify" viewBox="0 0 375 374.999991" height="500" preserveAspectRatio="xMidYMid meet" version="1.0"><defs><g/><clipPath id="352752e75d"><path d="M 216.183594 131.6875 L 261.933594 131.6875 L 261.933594 217.1875 L 216.183594 217.1875 Z M 216.183594 131.6875 " clip-rule="nonzero"/></clipPath></defs><g clip-path="url(#352752e75d)"><path fill="#545454" d="M 254.117188 216.886719 C 253.089844 216.632812 250.59375 215.585938 248.570312 214.550781 L 244.894531 212.675781 L 241.28125 214.417969 C 236.992188 216.484375 234.921875 217.070312 231.90625 217.070312 C 228.839844 217.070312 228.355469 216.710938 228.355469 214.414062 C 228.355469 212.769531 228.414062 212.632812 229.464844 211.765625 C 230.847656 210.621094 233.53125 209.773438 237.027344 209.375 C 238.511719 209.207031 239.804688 208.976562 239.898438 208.859375 C 239.996094 208.742188 239.835938 205.402344 239.542969 201.433594 C 238.984375 193.855469 239.027344 194.070312 236.804688 187.964844 C 236.164062 186.207031 236.050781 185.414062 236.0625 182.648438 C 236.070312 180.859375 236.199219 178.730469 236.351562 177.917969 C 236.503906 177.105469 236.710938 175.710938 236.808594 174.816406 C 237.039062 172.753906 236.660156 172.367188 233.605469 171.589844 C 230.589844 170.816406 228.730469 169.824219 227.210938 168.175781 C 226.035156 166.898438 225.566406 166.042969 223.535156 161.460938 C 222.886719 160.003906 222.570312 159.660156 221.222656 158.949219 C 218.808594 157.671875 217.808594 156.566406 217.558594 154.882812 C 217.351562 153.519531 217.386719 153.410156 218.273438 152.683594 C 218.785156 152.261719 219.199219 151.753906 219.199219 151.550781 C 219.199219 151.335938 219.570312 151.179688 220.082031 151.179688 C 220.570312 151.179688 220.96875 151.105469 220.96875 151.019531 C 220.96875 150.929688 220.117188 149.667969 219.074219 148.214844 C 216.527344 144.667969 216.214844 143.203125 218 143.203125 C 219.191406 143.203125 220.460938 144.773438 221.269531 147.238281 C 221.632812 148.347656 222.046875 149.386719 222.1875 149.539062 C 222.335938 149.703125 222.449219 148.644531 222.453125 147.027344 C 222.457031 144.171875 222.753906 143.085938 223.703125 142.492188 C 224.441406 142.03125 225.234375 142.609375 225.34375 143.6875 C 225.390625 144.167969 225.15625 145.789062 224.820312 147.289062 C 224.15625 150.273438 224.230469 150.707031 225.582031 151.691406 L 226.359375 152.257812 L 225.878906 153.90625 C 225.203125 156.234375 225.28125 157.660156 226.203125 159.804688 C 228.113281 164.253906 230.046875 166.726562 232.453125 167.792969 C 233.941406 168.449219 237.902344 168.828125 239.730469 168.484375 C 240.679688 168.304688 243.144531 166.496094 243.121094 165.992188 C 243.117188 165.890625 242.597656 165.566406 241.964844 165.277344 C 239.484375 164.132812 234.71875 158.722656 232.410156 154.429688 C 230.558594 150.992188 230.050781 148.914062 230.175781 145.320312 C 230.277344 142.417969 230.371094 141.992188 231.351562 139.953125 C 232.671875 137.210938 234.164062 135.46875 236.449219 133.988281 C 238.878906 132.417969 241.449219 131.675781 244.417969 131.6875 C 247.25 131.695312 248.84375 132.019531 250.972656 133.027344 C 258.601562 136.636719 261.246094 145.457031 257.140625 153.601562 C 255 157.84375 250.820312 162.878906 247.824219 164.820312 C 246.464844 165.703125 246.429688 165.757812 246.863281 166.417969 C 247.625 167.578125 249.101562 168.503906 251.359375 169.230469 C 253.734375 169.996094 254.230469 170.472656 255.195312 172.921875 C 256.523438 176.296875 256.796875 183.386719 255.726562 186.796875 C 255.117188 188.738281 253.632812 190.957031 252.40625 191.761719 C 251.695312 192.226562 251.347656 192.75 251.105469 193.707031 C 250.78125 194.992188 249.933594 205.261719 249.925781 207.941406 L 249.925781 209.300781 L 252.167969 209.492188 C 256.019531 209.816406 259.464844 210.949219 260.871094 212.355469 C 261.640625 213.125 261.703125 216.195312 260.960938 216.8125 C 260.261719 217.394531 256.363281 217.433594 254.117188 216.886719 Z M 254.117188 216.886719 " fill-opacity="1" fill-rule="nonzero"/></g><path fill="#e4e2dd" d="M 242.058594 153.34375 C 241.964844 148.339844 238.21875 144.421875 233.261719 144.132812 L 231.222656 144.015625 L 231.417969 145.230469 C 232.15625 149.847656 234.976562 153.257812 239.433594 154.921875 C 242.011719 155.886719 242.101562 155.832031 242.058594 153.34375 Z M 249.546875 154.980469 C 253.785156 153.410156 256.117188 150.894531 257.425781 146.472656 C 258.167969 143.972656 258.191406 144.003906 255.898438 144.132812 C 250.902344 144.417969 247.355469 148.09375 247.035156 153.320312 C 246.871094 155.980469 246.859375 155.972656 249.546875 154.976562 Z M 249.546875 154.980469 " fill-opacity="1" fill-rule="nonzero"/><g fill="#545454" fill-opacity="1"><g transform="translate(110.732745, 200.478517)"><g><path d="M 17.296875 -29.109375 C 21.648438 -29.109375 25.191406 -28.378906 27.921875 -26.921875 C 30.648438 -25.472656 32.015625 -23.113281 32.015625 -19.84375 L 32.015625 -8.734375 C 32.015625 -8.117188 32.15625 -7.613281 32.4375 -7.21875 C 32.726562 -6.820312 33.164062 -6.625 33.75 -6.625 L 35.6875 -6.625 L 35.6875 -0.4375 C 35.582031 -0.363281 35.300781 -0.242188 34.84375 -0.078125 C 34.394531 0.078125 33.757812 0.234375 32.9375 0.390625 C 32.113281 0.554688 31.160156 0.640625 30.078125 0.640625 C 27.992188 0.640625 26.273438 0.328125 24.921875 -0.296875 C 23.578125 -0.921875 22.65625 -1.789062 22.15625 -2.90625 C 20.789062 -1.832031 19.265625 -0.972656 17.578125 -0.328125 C 15.890625 0.316406 13.910156 0.640625 11.640625 0.640625 C 4.953125 0.640625 1.609375 -2.015625 1.609375 -7.328125 C 1.609375 -10.097656 2.351562 -12.207031 3.84375 -13.65625 C 5.34375 -15.113281 7.492188 -16.113281 10.296875 -16.65625 C 13.097656 -17.195312 16.765625 -17.46875 21.296875 -17.46875 L 21.296875 -18.859375 C 21.296875 -19.972656 20.90625 -20.816406 20.125 -21.390625 C 19.351562 -21.972656 18.359375 -22.265625 17.140625 -22.265625 C 16.023438 -22.265625 15.0625 -22.066406 14.25 -21.671875 C 13.445312 -21.273438 13.046875 -20.644531 13.046875 -19.78125 L 13.046875 -19.5625 L 2.484375 -19.5625 C 2.441406 -19.75 2.421875 -20.003906 2.421875 -20.328125 C 2.421875 -23.015625 3.707031 -25.148438 6.28125 -26.734375 C 8.851562 -28.316406 12.523438 -29.109375 17.296875 -29.109375 Z M 21.296875 -12.390625 C 18.234375 -12.390625 15.972656 -12.054688 14.515625 -11.390625 C 13.066406 -10.734375 12.34375 -9.847656 12.34375 -8.734375 C 12.34375 -6.929688 13.566406 -6.03125 16.015625 -6.03125 C 17.410156 -6.03125 18.640625 -6.40625 19.703125 -7.15625 C 20.765625 -7.914062 21.296875 -8.851562 21.296875 -9.96875 Z M 21.296875 -12.390625 "/></g></g></g><g fill="#545454" fill-opacity="1"><g transform="translate(141.620255, 200.478517)"><g><path d="M 3.609375 0 L 3.609375 -39.078125 L 14.34375 -39.078125 L 14.34375 0 Z M 3.609375 0 "/></g></g></g><g fill="#545454" fill-opacity="1"><g transform="translate(154.503052, 200.478517)"><g><path d="M 3.609375 -31.796875 L 3.609375 -39.078125 L 14.34375 -39.078125 L 14.34375 -31.796875 Z M 3.609375 0 L 3.609375 -28.46875 L 14.34375 -28.46875 L 14.34375 0 Z M 3.609375 0 "/></g></g></g><g fill="#545454" fill-opacity="1"><g transform="translate(167.385848, 200.478517)"><g><path d="M 17.953125 -29.109375 C 23.160156 -29.109375 27.140625 -27.882812 29.890625 -25.4375 C 32.640625 -23 34.015625 -19.265625 34.015625 -14.234375 L 34.015625 -12.390625 L 12.671875 -12.390625 C 12.671875 -10.347656 13.128906 -8.804688 14.046875 -7.765625 C 14.960938 -6.722656 16.40625 -6.203125 18.375 -6.203125 C 20.175781 -6.203125 21.5 -6.578125 22.34375 -7.328125 C 23.1875 -8.085938 23.609375 -9.09375 23.609375 -10.34375 L 34.015625 -10.34375 C 34.015625 -6.894531 32.703125 -4.203125 30.078125 -2.265625 C 27.453125 -0.328125 23.625 0.640625 18.59375 0.640625 C 13.3125 0.640625 9.210938 -0.585938 6.296875 -3.046875 C 3.390625 -5.503906 1.9375 -9.234375 1.9375 -14.234375 C 1.9375 -19.117188 3.351562 -22.816406 6.1875 -25.328125 C 9.03125 -27.847656 12.953125 -29.109375 17.953125 -29.109375 Z M 18.375 -22.265625 C 15 -22.265625 13.113281 -20.664062 12.71875 -17.46875 L 23.171875 -17.46875 C 23.171875 -18.9375 22.75 -20.101562 21.90625 -20.96875 C 21.0625 -21.832031 19.882812 -22.265625 18.375 -22.265625 Z M 18.375 -22.265625 "/></g></g></g><g fill="#545454" fill-opacity="1"><g transform="translate(198.273358, 200.478517)"><g><path d="M 22.859375 -29.109375 C 26.160156 -29.109375 28.640625 -28.191406 30.296875 -26.359375 C 31.953125 -24.523438 32.78125 -21.882812 32.78125 -18.4375 L 32.78125 0 L 22.046875 0 L 22.046875 -17.140625 C 22.046875 -18.359375 21.726562 -19.335938 21.09375 -20.078125 C 20.46875 -20.816406 19.582031 -21.1875 18.4375 -21.1875 C 17.101562 -21.1875 16.023438 -20.753906 15.203125 -19.890625 C 14.378906 -19.023438 13.96875 -17.960938 13.96875 -16.703125 L 13.96875 0 L 3.234375 0 L 3.234375 -28.46875 L 12.015625 -28.46875 L 12.71875 -24.15625 C 13.832031 -25.65625 15.296875 -26.851562 17.109375 -27.75 C 18.929688 -28.65625 20.847656 -29.109375 22.859375 -29.109375 Z M 22.859375 -29.109375 "/></g></g></g><g fill="#545454" fill-opacity="1"><g transform="translate(113.260903, 211.476538)"><g><path d="M 3.390625 -4 C 3.492188 -3.945312 3.550781 -3.863281 3.5625 -3.75 C 3.582031 -3.632812 3.554688 -3.53125 3.484375 -3.4375 C 3.429688 -3.375 3.363281 -3.335938 3.28125 -3.328125 C 3.195312 -3.316406 3.113281 -3.332031 3.03125 -3.375 C 2.9375 -3.414062 2.835938 -3.445312 2.734375 -3.46875 C 2.628906 -3.5 2.519531 -3.515625 2.40625 -3.515625 C 2.1875 -3.515625 1.988281 -3.476562 1.8125 -3.40625 C 1.644531 -3.34375 1.5 -3.242188 1.375 -3.109375 C 1.257812 -2.984375 1.171875 -2.832031 1.109375 -2.65625 C 1.046875 -2.488281 1.015625 -2.300781 1.015625 -2.09375 C 1.015625 -1.851562 1.050781 -1.640625 1.125 -1.453125 C 1.195312 -1.273438 1.296875 -1.125 1.421875 -1 C 1.546875 -0.882812 1.691406 -0.796875 1.859375 -0.734375 C 2.023438 -0.679688 2.207031 -0.65625 2.40625 -0.65625 C 2.507812 -0.65625 2.613281 -0.664062 2.71875 -0.6875 C 2.832031 -0.707031 2.9375 -0.742188 3.03125 -0.796875 C 3.113281 -0.835938 3.195312 -0.851562 3.28125 -0.84375 C 3.363281 -0.832031 3.429688 -0.789062 3.484375 -0.71875 C 3.566406 -0.613281 3.597656 -0.507812 3.578125 -0.40625 C 3.554688 -0.300781 3.492188 -0.222656 3.390625 -0.171875 C 3.285156 -0.117188 3.175781 -0.078125 3.0625 -0.046875 C 2.957031 -0.015625 2.847656 0.0078125 2.734375 0.03125 C 2.628906 0.0507812 2.519531 0.0625 2.40625 0.0625 C 2.113281 0.0625 1.835938 0.015625 1.578125 -0.078125 C 1.316406 -0.171875 1.085938 -0.304688 0.890625 -0.484375 C 0.691406 -0.660156 0.53125 -0.882812 0.40625 -1.15625 C 0.289062 -1.425781 0.234375 -1.738281 0.234375 -2.09375 C 0.234375 -2.40625 0.285156 -2.691406 0.390625 -2.953125 C 0.503906 -3.210938 0.65625 -3.4375 0.84375 -3.625 C 1.039062 -3.8125 1.269531 -3.957031 1.53125 -4.0625 C 1.800781 -4.175781 2.09375 -4.234375 2.40625 -4.234375 C 2.570312 -4.234375 2.738281 -4.210938 2.90625 -4.171875 C 3.082031 -4.128906 3.242188 -4.070312 3.390625 -4 Z M 3.390625 -4 "/></g></g></g><g fill="#545454" fill-opacity="1"><g transform="translate(117.022918, 211.476538)"><g><path d="M 4.3125 -2.09375 C 4.3125 -1.800781 4.257812 -1.523438 4.15625 -1.265625 C 4.0625 -1.003906 3.921875 -0.773438 3.734375 -0.578125 C 3.554688 -0.378906 3.34375 -0.222656 3.09375 -0.109375 C 2.84375 0.00390625 2.570312 0.0625 2.28125 0.0625 C 1.976562 0.0625 1.703125 0.00390625 1.453125 -0.109375 C 1.210938 -0.222656 1 -0.378906 0.8125 -0.578125 C 0.632812 -0.773438 0.492188 -1.003906 0.390625 -1.265625 C 0.285156 -1.523438 0.234375 -1.800781 0.234375 -2.09375 C 0.234375 -2.394531 0.285156 -2.675781 0.390625 -2.9375 C 0.492188 -3.195312 0.632812 -3.425781 0.8125 -3.625 C 1 -3.820312 1.210938 -3.976562 1.453125 -4.09375 C 1.703125 -4.207031 1.976562 -4.265625 2.28125 -4.265625 C 2.570312 -4.265625 2.84375 -4.207031 3.09375 -4.09375 C 3.34375 -3.976562 3.554688 -3.820312 3.734375 -3.625 C 3.921875 -3.425781 4.0625 -3.195312 4.15625 -2.9375 C 4.257812 -2.675781 4.3125 -2.394531 4.3125 -2.09375 Z M 3.53125 -2.09375 C 3.53125 -2.363281 3.472656 -2.609375 3.359375 -2.828125 C 3.253906 -3.046875 3.109375 -3.21875 2.921875 -3.34375 C 2.734375 -3.476562 2.519531 -3.546875 2.28125 -3.546875 C 2.03125 -3.546875 1.8125 -3.476562 1.625 -3.34375 C 1.4375 -3.21875 1.285156 -3.046875 1.171875 -2.828125 C 1.066406 -2.617188 1.015625 -2.375 1.015625 -2.09375 C 1.015625 -1.832031 1.066406 -1.59375 1.171875 -1.375 C 1.285156 -1.15625 1.4375 -0.976562 1.625 -0.84375 C 1.8125 -0.71875 2.03125 -0.65625 2.28125 -0.65625 C 2.519531 -0.65625 2.734375 -0.71875 2.921875 -0.84375 C 3.109375 -0.976562 3.253906 -1.15625 3.359375 -1.375 C 3.472656 -1.59375 3.53125 -1.832031 3.53125 -2.09375 Z M 3.53125 -2.09375 "/></g></g></g><g fill="#545454" fill-opacity="1"><g transform="translate(121.576939, 211.476538)"><g><path d="M 3.640625 -4.203125 C 3.734375 -4.203125 3.804688 -4.171875 3.859375 -4.109375 C 3.921875 -4.046875 3.953125 -3.960938 3.953125 -3.859375 L 3.953125 -0.359375 C 3.953125 -0.253906 3.914062 -0.164062 3.84375 -0.09375 C 3.78125 -0.03125 3.695312 0 3.59375 0 C 3.539062 0 3.488281 -0.00390625 3.4375 -0.015625 C 3.382812 -0.0351562 3.34375 -0.0664062 3.3125 -0.109375 L 0.953125 -3.09375 L 1.109375 -3.1875 L 1.109375 -0.34375 C 1.109375 -0.238281 1.078125 -0.15625 1.015625 -0.09375 C 0.953125 -0.03125 0.875 0 0.78125 0 C 0.675781 0 0.59375 -0.03125 0.53125 -0.09375 C 0.476562 -0.15625 0.453125 -0.238281 0.453125 -0.34375 L 0.453125 -3.828125 C 0.453125 -3.929688 0.484375 -4.019531 0.546875 -4.09375 C 0.617188 -4.164062 0.707031 -4.203125 0.8125 -4.203125 C 0.875 -4.203125 0.929688 -4.191406 0.984375 -4.171875 C 1.046875 -4.148438 1.09375 -4.113281 1.125 -4.0625 L 3.40625 -1.15625 L 3.3125 -1.078125 L 3.3125 -3.859375 C 3.3125 -3.960938 3.335938 -4.046875 3.390625 -4.109375 C 3.453125 -4.171875 3.535156 -4.203125 3.640625 -4.203125 Z M 3.640625 -4.203125 "/></g></g></g><g fill="#545454" fill-opacity="1"><g transform="translate(125.986963, 211.476538)"><g><path d="M 1.875 0 C 1.757812 0 1.664062 -0.03125 1.59375 -0.09375 C 1.519531 -0.164062 1.484375 -0.253906 1.484375 -0.359375 L 1.484375 -3.84375 L 2.265625 -3.84375 L 2.265625 -0.359375 C 2.265625 -0.253906 2.226562 -0.164062 2.15625 -0.09375 C 2.082031 -0.03125 1.988281 0 1.875 0 Z M 0.546875 -3.515625 C 0.441406 -3.515625 0.351562 -3.546875 0.28125 -3.609375 C 0.21875 -3.671875 0.1875 -3.753906 0.1875 -3.859375 C 0.1875 -3.960938 0.21875 -4.046875 0.28125 -4.109375 C 0.351562 -4.171875 0.441406 -4.203125 0.546875 -4.203125 L 3.203125 -4.203125 C 3.304688 -4.203125 3.394531 -4.171875 3.46875 -4.109375 C 3.539062 -4.046875 3.578125 -3.960938 3.578125 -3.859375 C 3.578125 -3.753906 3.539062 -3.671875 3.46875 -3.609375 C 3.394531 -3.546875 3.304688 -3.515625 3.203125 -3.515625 Z M 0.546875 -3.515625 "/></g></g></g><g fill="#545454" fill-opacity="1"><g transform="translate(129.742982, 211.476538)"><g><path d="M 0.8125 -4.203125 L 2.828125 -4.203125 C 2.929688 -4.203125 3.015625 -4.164062 3.078125 -4.09375 C 3.148438 -4.03125 3.1875 -3.945312 3.1875 -3.84375 C 3.1875 -3.75 3.148438 -3.671875 3.078125 -3.609375 C 3.015625 -3.546875 2.929688 -3.515625 2.828125 -3.515625 L 1.140625 -3.515625 L 1.203125 -3.609375 L 1.203125 -2.4375 L 1.15625 -2.484375 L 2.5625 -2.484375 C 2.664062 -2.484375 2.75 -2.453125 2.8125 -2.390625 C 2.882812 -2.328125 2.921875 -2.242188 2.921875 -2.140625 C 2.921875 -2.035156 2.882812 -1.953125 2.8125 -1.890625 C 2.75 -1.828125 2.664062 -1.796875 2.5625 -1.796875 L 1.171875 -1.796875 L 1.203125 -1.84375 L 1.203125 -0.640625 L 1.15625 -0.6875 L 2.828125 -0.6875 C 2.929688 -0.6875 3.015625 -0.648438 3.078125 -0.578125 C 3.148438 -0.515625 3.1875 -0.4375 3.1875 -0.34375 C 3.1875 -0.238281 3.148438 -0.15625 3.078125 -0.09375 C 3.015625 -0.03125 2.929688 0 2.828125 0 L 0.8125 0 C 0.707031 0 0.617188 -0.03125 0.546875 -0.09375 C 0.484375 -0.164062 0.453125 -0.253906 0.453125 -0.359375 L 0.453125 -3.828125 C 0.453125 -3.929688 0.484375 -4.019531 0.546875 -4.09375 C 0.617188 -4.164062 0.707031 -4.203125 0.8125 -4.203125 Z M 0.8125 -4.203125 "/></g></g></g><g fill="#545454" fill-opacity="1"><g transform="translate(133.174996, 211.476538)"><g><path d="M 0.828125 -4.203125 C 0.878906 -4.203125 0.9375 -4.1875 1 -4.15625 C 1.0625 -4.125 1.109375 -4.085938 1.140625 -4.046875 L 2.609375 -1.796875 L 2.296875 -1.8125 L 3.796875 -4.046875 C 3.867188 -4.148438 3.96875 -4.203125 4.09375 -4.203125 C 4.1875 -4.203125 4.269531 -4.164062 4.34375 -4.09375 C 4.425781 -4.03125 4.46875 -3.945312 4.46875 -3.84375 L 4.46875 -0.359375 C 4.46875 -0.253906 4.429688 -0.164062 4.359375 -0.09375 C 4.296875 -0.03125 4.207031 0 4.09375 0 C 3.976562 0 3.882812 -0.03125 3.8125 -0.09375 C 3.75 -0.164062 3.71875 -0.253906 3.71875 -0.359375 L 3.71875 -3.1875 L 3.953125 -3.140625 L 2.71875 -1.265625 C 2.6875 -1.222656 2.644531 -1.1875 2.59375 -1.15625 C 2.539062 -1.125 2.484375 -1.109375 2.421875 -1.109375 C 2.367188 -1.109375 2.316406 -1.125 2.265625 -1.15625 C 2.210938 -1.1875 2.164062 -1.222656 2.125 -1.265625 L 0.984375 -3.078125 L 1.140625 -3.40625 L 1.140625 -0.359375 C 1.140625 -0.253906 1.109375 -0.164062 1.046875 -0.09375 C 0.984375 -0.03125 0.898438 0 0.796875 0 C 0.691406 0 0.609375 -0.03125 0.546875 -0.09375 C 0.484375 -0.164062 0.453125 -0.253906 0.453125 -0.359375 L 0.453125 -3.84375 C 0.453125 -3.9375 0.488281 -4.019531 0.5625 -4.09375 C 0.632812 -4.164062 0.722656 -4.203125 0.828125 -4.203125 Z M 0.828125 -4.203125 "/></g></g></g><g fill="#545454" fill-opacity="1"><g transform="translate(138.089017, 211.476538)"><g><path d="M 2.1875 -4.203125 C 2.394531 -4.203125 2.585938 -4.140625 2.765625 -4.015625 C 2.953125 -3.898438 3.097656 -3.738281 3.203125 -3.53125 C 3.316406 -3.332031 3.375 -3.101562 3.375 -2.84375 C 3.375 -2.601562 3.316406 -2.378906 3.203125 -2.171875 C 3.097656 -1.960938 2.953125 -1.796875 2.765625 -1.671875 C 2.585938 -1.554688 2.394531 -1.5 2.1875 -1.5 L 1.078125 -1.5 L 1.140625 -1.609375 L 1.140625 -0.359375 C 1.140625 -0.253906 1.109375 -0.164062 1.046875 -0.09375 C 0.984375 -0.03125 0.898438 0 0.796875 0 C 0.691406 0 0.609375 -0.03125 0.546875 -0.09375 C 0.484375 -0.164062 0.453125 -0.253906 0.453125 -0.359375 L 0.453125 -3.828125 C 0.453125 -3.929688 0.484375 -4.019531 0.546875 -4.09375 C 0.617188 -4.164062 0.707031 -4.203125 0.8125 -4.203125 Z M 2.1875 -2.1875 C 2.257812 -2.1875 2.332031 -2.21875 2.40625 -2.28125 C 2.476562 -2.34375 2.535156 -2.425781 2.578125 -2.53125 C 2.628906 -2.632812 2.65625 -2.738281 2.65625 -2.84375 C 2.65625 -2.96875 2.628906 -3.078125 2.578125 -3.171875 C 2.535156 -3.273438 2.476562 -3.359375 2.40625 -3.421875 C 2.332031 -3.484375 2.257812 -3.515625 2.1875 -3.515625 L 1.0625 -3.515625 L 1.140625 -3.625 L 1.140625 -2.09375 L 1.078125 -2.1875 Z M 2.1875 -2.1875 "/></g></g></g><g fill="#545454" fill-opacity="1"><g transform="translate(141.707035, 211.476538)"><g><path d="M 4.3125 -2.09375 C 4.3125 -1.800781 4.257812 -1.523438 4.15625 -1.265625 C 4.0625 -1.003906 3.921875 -0.773438 3.734375 -0.578125 C 3.554688 -0.378906 3.34375 -0.222656 3.09375 -0.109375 C 2.84375 0.00390625 2.570312 0.0625 2.28125 0.0625 C 1.976562 0.0625 1.703125 0.00390625 1.453125 -0.109375 C 1.210938 -0.222656 1 -0.378906 0.8125 -0.578125 C 0.632812 -0.773438 0.492188 -1.003906 0.390625 -1.265625 C 0.285156 -1.523438 0.234375 -1.800781 0.234375 -2.09375 C 0.234375 -2.394531 0.285156 -2.675781 0.390625 -2.9375 C 0.492188 -3.195312 0.632812 -3.425781 0.8125 -3.625 C 1 -3.820312 1.210938 -3.976562 1.453125 -4.09375 C 1.703125 -4.207031 1.976562 -4.265625 2.28125 -4.265625 C 2.570312 -4.265625 2.84375 -4.207031 3.09375 -4.09375 C 3.34375 -3.976562 3.554688 -3.820312 3.734375 -3.625 C 3.921875 -3.425781 4.0625 -3.195312 4.15625 -2.9375 C 4.257812 -2.675781 4.3125 -2.394531 4.3125 -2.09375 Z M 3.53125 -2.09375 C 3.53125 -2.363281 3.472656 -2.609375 3.359375 -2.828125 C 3.253906 -3.046875 3.109375 -3.21875 2.921875 -3.34375 C 2.734375 -3.476562 2.519531 -3.546875 2.28125 -3.546875 C 2.03125 -3.546875 1.8125 -3.476562 1.625 -3.34375 C 1.4375 -3.21875 1.285156 -3.046875 1.171875 -2.828125 C 1.066406 -2.617188 1.015625 -2.375 1.015625 -2.09375 C 1.015625 -1.832031 1.066406 -1.59375 1.171875 -1.375 C 1.285156 -1.15625 1.4375 -0.976562 1.625 -0.84375 C 1.8125 -0.71875 2.03125 -0.65625 2.28125 -0.65625 C 2.519531 -0.65625 2.734375 -0.71875 2.921875 -0.84375 C 3.109375 -0.976562 3.253906 -1.15625 3.359375 -1.375 C 3.472656 -1.59375 3.53125 -1.832031 3.53125 -2.09375 Z M 3.53125 -2.09375 "/></g></g></g><g fill="#545454" fill-opacity="1"><g transform="translate(146.261056, 211.476538)"><g><path d="M 0.875 0 C 0.769531 0 0.671875 -0.03125 0.578125 -0.09375 C 0.492188 -0.164062 0.453125 -0.253906 0.453125 -0.359375 L 0.453125 -3.828125 C 0.453125 -3.929688 0.484375 -4.019531 0.546875 -4.09375 C 0.617188 -4.164062 0.707031 -4.203125 0.8125 -4.203125 L 2.546875 -4.203125 C 2.753906 -4.203125 2.945312 -4.144531 3.125 -4.03125 C 3.3125 -3.925781 3.457031 -3.773438 3.5625 -3.578125 C 3.675781 -3.378906 3.734375 -3.15625 3.734375 -2.90625 C 3.734375 -2.757812 3.703125 -2.613281 3.640625 -2.46875 C 3.578125 -2.320312 3.492188 -2.191406 3.390625 -2.078125 C 3.285156 -1.960938 3.164062 -1.875 3.03125 -1.8125 L 3.046875 -1.9375 C 3.148438 -1.882812 3.238281 -1.816406 3.3125 -1.734375 C 3.394531 -1.648438 3.457031 -1.5625 3.5 -1.46875 C 3.539062 -1.375 3.5625 -1.269531 3.5625 -1.15625 C 3.582031 -1.0625 3.59375 -0.972656 3.59375 -0.890625 C 3.601562 -0.816406 3.617188 -0.753906 3.640625 -0.703125 C 3.660156 -0.648438 3.695312 -0.613281 3.75 -0.59375 C 3.832031 -0.539062 3.882812 -0.460938 3.90625 -0.359375 C 3.925781 -0.265625 3.90625 -0.179688 3.84375 -0.109375 C 3.800781 -0.0546875 3.742188 -0.0195312 3.671875 0 C 3.597656 0.0078125 3.523438 0.0078125 3.453125 0 C 3.390625 -0.0195312 3.335938 -0.0390625 3.296875 -0.0625 C 3.234375 -0.101562 3.164062 -0.160156 3.09375 -0.234375 C 3.03125 -0.316406 2.976562 -0.421875 2.9375 -0.546875 C 2.894531 -0.679688 2.875 -0.851562 2.875 -1.0625 C 2.875 -1.125 2.859375 -1.1875 2.828125 -1.25 C 2.804688 -1.3125 2.769531 -1.363281 2.71875 -1.40625 C 2.675781 -1.445312 2.617188 -1.476562 2.546875 -1.5 C 2.484375 -1.519531 2.410156 -1.53125 2.328125 -1.53125 L 1.109375 -1.53125 L 1.203125 -1.671875 L 1.203125 -0.359375 C 1.203125 -0.253906 1.171875 -0.164062 1.109375 -0.09375 C 1.054688 -0.03125 0.976562 0 0.875 0 Z M 1.109375 -2.140625 L 2.515625 -2.140625 C 2.585938 -2.140625 2.65625 -2.171875 2.71875 -2.234375 C 2.789062 -2.304688 2.847656 -2.398438 2.890625 -2.515625 C 2.929688 -2.628906 2.953125 -2.753906 2.953125 -2.890625 C 2.953125 -3.066406 2.90625 -3.210938 2.8125 -3.328125 C 2.71875 -3.453125 2.617188 -3.515625 2.515625 -3.515625 L 1.125 -3.515625 L 1.203125 -3.703125 L 1.203125 -2 Z M 1.109375 -2.140625 "/></g></g></g><g fill="#545454" fill-opacity="1"><g transform="translate(150.383079, 211.476538)"><g><path d="M 1.984375 -3.265625 L 0.703125 -0.203125 C 0.671875 -0.128906 0.625 -0.0703125 0.5625 -0.03125 C 0.507812 0.0078125 0.445312 0.03125 0.375 0.03125 C 0.269531 0.03125 0.191406 0 0.140625 -0.0625 C 0.0859375 -0.125 0.0625 -0.195312 0.0625 -0.28125 C 0.0625 -0.320312 0.0664062 -0.359375 0.078125 -0.390625 L 1.578125 -3.984375 C 1.609375 -4.066406 1.65625 -4.128906 1.71875 -4.171875 C 1.78125 -4.210938 1.851562 -4.226562 1.9375 -4.21875 C 2.007812 -4.21875 2.070312 -4.195312 2.125 -4.15625 C 2.1875 -4.113281 2.234375 -4.054688 2.265625 -3.984375 L 3.75 -0.46875 C 3.769531 -0.414062 3.78125 -0.367188 3.78125 -0.328125 C 3.78125 -0.210938 3.742188 -0.125 3.671875 -0.0625 C 3.597656 0 3.519531 0.03125 3.4375 0.03125 C 3.363281 0.03125 3.296875 0.0078125 3.234375 -0.03125 C 3.179688 -0.0820312 3.140625 -0.144531 3.109375 -0.21875 L 1.8125 -3.21875 Z M 0.875 -0.9375 L 1.21875 -1.625 L 2.828125 -1.625 L 2.953125 -0.9375 Z M 0.875 -0.9375 "/></g></g></g><g fill="#545454" fill-opacity="1"><g transform="translate(154.2171, 211.476538)"><g><path d="M 0.875 0 C 0.769531 0 0.671875 -0.03125 0.578125 -0.09375 C 0.492188 -0.164062 0.453125 -0.253906 0.453125 -0.359375 L 0.453125 -3.828125 C 0.453125 -3.929688 0.484375 -4.019531 0.546875 -4.09375 C 0.617188 -4.164062 0.707031 -4.203125 0.8125 -4.203125 L 2.546875 -4.203125 C 2.753906 -4.203125 2.945312 -4.144531 3.125 -4.03125 C 3.3125 -3.925781 3.457031 -3.773438 3.5625 -3.578125 C 3.675781 -3.378906 3.734375 -3.15625 3.734375 -2.90625 C 3.734375 -2.757812 3.703125 -2.613281 3.640625 -2.46875 C 3.578125 -2.320312 3.492188 -2.191406 3.390625 -2.078125 C 3.285156 -1.960938 3.164062 -1.875 3.03125 -1.8125 L 3.046875 -1.9375 C 3.148438 -1.882812 3.238281 -1.816406 3.3125 -1.734375 C 3.394531 -1.648438 3.457031 -1.5625 3.5 -1.46875 C 3.539062 -1.375 3.5625 -1.269531 3.5625 -1.15625 C 3.582031 -1.0625 3.59375 -0.972656 3.59375 -0.890625 C 3.601562 -0.816406 3.617188 -0.753906 3.640625 -0.703125 C 3.660156 -0.648438 3.695312 -0.613281 3.75 -0.59375 C 3.832031 -0.539062 3.882812 -0.460938 3.90625 -0.359375 C 3.925781 -0.265625 3.90625 -0.179688 3.84375 -0.109375 C 3.800781 -0.0546875 3.742188 -0.0195312 3.671875 0 C 3.597656 0.0078125 3.523438 0.0078125 3.453125 0 C 3.390625 -0.0195312 3.335938 -0.0390625 3.296875 -0.0625 C 3.234375 -0.101562 3.164062 -0.160156 3.09375 -0.234375 C 3.03125 -0.316406 2.976562 -0.421875 2.9375 -0.546875 C 2.894531 -0.679688 2.875 -0.851562 2.875 -1.0625 C 2.875 -1.125 2.859375 -1.1875 2.828125 -1.25 C 2.804688 -1.3125 2.769531 -1.363281 2.71875 -1.40625 C 2.675781 -1.445312 2.617188 -1.476562 2.546875 -1.5 C 2.484375 -1.519531 2.410156 -1.53125 2.328125 -1.53125 L 1.109375 -1.53125 L 1.203125 -1.671875 L 1.203125 -0.359375 C 1.203125 -0.253906 1.171875 -0.164062 1.109375 -0.09375 C 1.054688 -0.03125 0.976562 0 0.875 0 Z M 1.109375 -2.140625 L 2.515625 -2.140625 C 2.585938 -2.140625 2.65625 -2.171875 2.71875 -2.234375 C 2.789062 -2.304688 2.847656 -2.398438 2.890625 -2.515625 C 2.929688 -2.628906 2.953125 -2.753906 2.953125 -2.890625 C 2.953125 -3.066406 2.90625 -3.210938 2.8125 -3.328125 C 2.71875 -3.453125 2.617188 -3.515625 2.515625 -3.515625 L 1.125 -3.515625 L 1.203125 -3.703125 L 1.203125 -2 Z M 1.109375 -2.140625 "/></g></g></g><g fill="#545454" fill-opacity="1"><g transform="translate(158.339123, 211.476538)"><g><path d="M 3.125 -4.21875 C 3.21875 -4.21875 3.300781 -4.179688 3.375 -4.109375 C 3.445312 -4.046875 3.484375 -3.957031 3.484375 -3.84375 C 3.484375 -3.8125 3.476562 -3.773438 3.46875 -3.734375 C 3.457031 -3.691406 3.441406 -3.65625 3.421875 -3.625 L 2.0625 -1.671875 L 2.171875 -2.09375 L 2.171875 -0.359375 C 2.171875 -0.253906 2.132812 -0.164062 2.0625 -0.09375 C 1.988281 -0.03125 1.90625 0 1.8125 0 C 1.71875 0 1.632812 -0.03125 1.5625 -0.09375 C 1.488281 -0.164062 1.453125 -0.253906 1.453125 -0.359375 L 1.453125 -2.046875 L 1.5 -1.84375 L 0.203125 -3.5625 C 0.171875 -3.613281 0.144531 -3.664062 0.125 -3.71875 C 0.113281 -3.769531 0.109375 -3.816406 0.109375 -3.859375 C 0.109375 -3.960938 0.148438 -4.046875 0.234375 -4.109375 C 0.316406 -4.179688 0.398438 -4.21875 0.484375 -4.21875 C 0.597656 -4.21875 0.695312 -4.160156 0.78125 -4.046875 L 1.9375 -2.453125 L 1.765625 -2.484375 L 2.828125 -4.03125 C 2.910156 -4.15625 3.007812 -4.21875 3.125 -4.21875 Z M 3.125 -4.21875 "/></g></g></g><g fill="#545454" fill-opacity="1"><g transform="translate(113.260903, 216.476526)"><g><path d="M 1.984375 -3.265625 L 0.703125 -0.203125 C 0.671875 -0.128906 0.625 -0.0703125 0.5625 -0.03125 C 0.507812 0.0078125 0.445312 0.03125 0.375 0.03125 C 0.269531 0.03125 0.191406 0 0.140625 -0.0625 C 0.0859375 -0.125 0.0625 -0.195312 0.0625 -0.28125 C 0.0625 -0.320312 0.0664062 -0.359375 0.078125 -0.390625 L 1.578125 -3.984375 C 1.609375 -4.066406 1.65625 -4.128906 1.71875 -4.171875 C 1.78125 -4.210938 1.851562 -4.226562 1.9375 -4.21875 C 2.007812 -4.21875 2.070312 -4.195312 2.125 -4.15625 C 2.1875 -4.113281 2.234375 -4.054688 2.265625 -3.984375 L 3.75 -0.46875 C 3.769531 -0.414062 3.78125 -0.367188 3.78125 -0.328125 C 3.78125 -0.210938 3.742188 -0.125 3.671875 -0.0625 C 3.597656 0 3.519531 0.03125 3.4375 0.03125 C 3.363281 0.03125 3.296875 0.0078125 3.234375 -0.03125 C 3.179688 -0.0820312 3.140625 -0.144531 3.109375 -0.21875 L 1.8125 -3.21875 Z M 0.875 -0.9375 L 1.21875 -1.625 L 2.828125 -1.625 L 2.953125 -0.9375 Z M 0.875 -0.9375 "/></g></g></g><g fill="#545454" fill-opacity="1"><g transform="translate(117.094924, 216.476526)"><g><path d="M 0.875 0 C 0.769531 0 0.671875 -0.03125 0.578125 -0.09375 C 0.492188 -0.164062 0.453125 -0.253906 0.453125 -0.359375 L 0.453125 -3.828125 C 0.453125 -3.929688 0.484375 -4.019531 0.546875 -4.09375 C 0.617188 -4.164062 0.707031 -4.203125 0.8125 -4.203125 L 2.546875 -4.203125 C 2.753906 -4.203125 2.945312 -4.144531 3.125 -4.03125 C 3.3125 -3.925781 3.457031 -3.773438 3.5625 -3.578125 C 3.675781 -3.378906 3.734375 -3.15625 3.734375 -2.90625 C 3.734375 -2.757812 3.703125 -2.613281 3.640625 -2.46875 C 3.578125 -2.320312 3.492188 -2.191406 3.390625 -2.078125 C 3.285156 -1.960938 3.164062 -1.875 3.03125 -1.8125 L 3.046875 -1.9375 C 3.148438 -1.882812 3.238281 -1.816406 3.3125 -1.734375 C 3.394531 -1.648438 3.457031 -1.5625 3.5 -1.46875 C 3.539062 -1.375 3.5625 -1.269531 3.5625 -1.15625 C 3.582031 -1.0625 3.59375 -0.972656 3.59375 -0.890625 C 3.601562 -0.816406 3.617188 -0.753906 3.640625 -0.703125 C 3.660156 -0.648438 3.695312 -0.613281 3.75 -0.59375 C 3.832031 -0.539062 3.882812 -0.460938 3.90625 -0.359375 C 3.925781 -0.265625 3.90625 -0.179688 3.84375 -0.109375 C 3.800781 -0.0546875 3.742188 -0.0195312 3.671875 0 C 3.597656 0.0078125 3.523438 0.0078125 3.453125 0 C 3.390625 -0.0195312 3.335938 -0.0390625 3.296875 -0.0625 C 3.234375 -0.101562 3.164062 -0.160156 3.09375 -0.234375 C 3.03125 -0.316406 2.976562 -0.421875 2.9375 -0.546875 C 2.894531 -0.679688 2.875 -0.851562 2.875 -1.0625 C 2.875 -1.125 2.859375 -1.1875 2.828125 -1.25 C 2.804688 -1.3125 2.769531 -1.363281 2.71875 -1.40625 C 2.675781 -1.445312 2.617188 -1.476562 2.546875 -1.5 C 2.484375 -1.519531 2.410156 -1.53125 2.328125 -1.53125 L 1.109375 -1.53125 L 1.203125 -1.671875 L 1.203125 -0.359375 C 1.203125 -0.253906 1.171875 -0.164062 1.109375 -0.09375 C 1.054688 -0.03125 0.976562 0 0.875 0 Z M 1.109375 -2.140625 L 2.515625 -2.140625 C 2.585938 -2.140625 2.65625 -2.171875 2.71875 -2.234375 C 2.789062 -2.304688 2.847656 -2.398438 2.890625 -2.515625 C 2.929688 -2.628906 2.953125 -2.753906 2.953125 -2.890625 C 2.953125 -3.066406 2.90625 -3.210938 2.8125 -3.328125 C 2.71875 -3.453125 2.617188 -3.515625 2.515625 -3.515625 L 1.125 -3.515625 L 1.203125 -3.703125 L 1.203125 -2 Z M 1.109375 -2.140625 "/></g></g></g><g fill="#545454" fill-opacity="1"><g transform="translate(121.216947, 216.476526)"><g><path d="M 1.875 0 C 1.757812 0 1.664062 -0.03125 1.59375 -0.09375 C 1.519531 -0.164062 1.484375 -0.253906 1.484375 -0.359375 L 1.484375 -3.84375 L 2.265625 -3.84375 L 2.265625 -0.359375 C 2.265625 -0.253906 2.226562 -0.164062 2.15625 -0.09375 C 2.082031 -0.03125 1.988281 0 1.875 0 Z M 0.546875 -3.515625 C 0.441406 -3.515625 0.351562 -3.546875 0.28125 -3.609375 C 0.21875 -3.671875 0.1875 -3.753906 0.1875 -3.859375 C 0.1875 -3.960938 0.21875 -4.046875 0.28125 -4.109375 C 0.351562 -4.171875 0.441406 -4.203125 0.546875 -4.203125 L 3.203125 -4.203125 C 3.304688 -4.203125 3.394531 -4.171875 3.46875 -4.109375 C 3.539062 -4.046875 3.578125 -3.960938 3.578125 -3.859375 C 3.578125 -3.753906 3.539062 -3.671875 3.46875 -3.609375 C 3.394531 -3.546875 3.304688 -3.515625 3.203125 -3.515625 Z M 0.546875 -3.515625 "/></g></g></g><g fill="#545454" fill-opacity="1"><g transform="translate(124.972965, 216.476526)"><g/></g></g><g fill="#545454" fill-opacity="1"><g transform="translate(126.652977, 216.476526)"><g><path d="M 2.4375 0.0625 C 2.125 0.0625 1.835938 0.00390625 1.578125 -0.109375 C 1.316406 -0.222656 1.082031 -0.378906 0.875 -0.578125 C 0.675781 -0.773438 0.519531 -1.003906 0.40625 -1.265625 C 0.289062 -1.523438 0.234375 -1.800781 0.234375 -2.09375 C 0.234375 -2.394531 0.289062 -2.675781 0.40625 -2.9375 C 0.519531 -3.195312 0.675781 -3.425781 0.875 -3.625 C 1.082031 -3.820312 1.316406 -3.976562 1.578125 -4.09375 C 1.835938 -4.207031 2.125 -4.265625 2.4375 -4.265625 C 2.625 -4.265625 2.800781 -4.242188 2.96875 -4.203125 C 3.144531 -4.160156 3.3125 -4.097656 3.46875 -4.015625 C 3.519531 -3.984375 3.5625 -3.941406 3.59375 -3.890625 C 3.625 -3.835938 3.640625 -3.78125 3.640625 -3.71875 C 3.640625 -3.625 3.609375 -3.539062 3.546875 -3.46875 C 3.484375 -3.394531 3.398438 -3.359375 3.296875 -3.359375 C 3.265625 -3.359375 3.234375 -3.359375 3.203125 -3.359375 C 3.171875 -3.367188 3.140625 -3.382812 3.109375 -3.40625 C 3.003906 -3.445312 2.894531 -3.476562 2.78125 -3.5 C 2.664062 -3.53125 2.550781 -3.546875 2.4375 -3.546875 C 2.175781 -3.546875 1.9375 -3.476562 1.71875 -3.34375 C 1.5 -3.21875 1.328125 -3.046875 1.203125 -2.828125 C 1.078125 -2.609375 1.015625 -2.363281 1.015625 -2.09375 C 1.015625 -1.832031 1.078125 -1.59375 1.203125 -1.375 C 1.328125 -1.15625 1.5 -0.976562 1.71875 -0.84375 C 1.9375 -0.71875 2.175781 -0.65625 2.4375 -0.65625 C 2.550781 -0.65625 2.679688 -0.664062 2.828125 -0.6875 C 2.972656 -0.71875 3.09375 -0.753906 3.1875 -0.796875 L 3.125 -0.609375 L 3.125 -1.640625 L 3.234375 -1.546875 L 2.5625 -1.546875 C 2.457031 -1.546875 2.367188 -1.578125 2.296875 -1.640625 C 2.234375 -1.710938 2.203125 -1.800781 2.203125 -1.90625 C 2.203125 -2.007812 2.234375 -2.09375 2.296875 -2.15625 C 2.367188 -2.226562 2.457031 -2.265625 2.5625 -2.265625 L 3.546875 -2.265625 C 3.648438 -2.265625 3.734375 -2.226562 3.796875 -2.15625 C 3.867188 -2.09375 3.90625 -2.007812 3.90625 -1.90625 L 3.90625 -0.625 C 3.90625 -0.550781 3.882812 -0.488281 3.84375 -0.4375 C 3.8125 -0.382812 3.769531 -0.34375 3.71875 -0.3125 C 3.53125 -0.195312 3.328125 -0.101562 3.109375 -0.03125 C 2.898438 0.03125 2.675781 0.0625 2.4375 0.0625 Z M 2.4375 0.0625 "/></g></g></g><g fill="#545454" fill-opacity="1"><g transform="translate(130.829, 216.476526)"><g><path d="M 1.984375 -3.265625 L 0.703125 -0.203125 C 0.671875 -0.128906 0.625 -0.0703125 0.5625 -0.03125 C 0.507812 0.0078125 0.445312 0.03125 0.375 0.03125 C 0.269531 0.03125 0.191406 0 0.140625 -0.0625 C 0.0859375 -0.125 0.0625 -0.195312 0.0625 -0.28125 C 0.0625 -0.320312 0.0664062 -0.359375 0.078125 -0.390625 L 1.578125 -3.984375 C 1.609375 -4.066406 1.65625 -4.128906 1.71875 -4.171875 C 1.78125 -4.210938 1.851562 -4.226562 1.9375 -4.21875 C 2.007812 -4.21875 2.070312 -4.195312 2.125 -4.15625 C 2.1875 -4.113281 2.234375 -4.054688 2.265625 -3.984375 L 3.75 -0.46875 C 3.769531 -0.414062 3.78125 -0.367188 3.78125 -0.328125 C 3.78125 -0.210938 3.742188 -0.125 3.671875 -0.0625 C 3.597656 0 3.519531 0.03125 3.4375 0.03125 C 3.363281 0.03125 3.296875 0.0078125 3.234375 -0.03125 C 3.179688 -0.0820312 3.140625 -0.144531 3.109375 -0.21875 L 1.8125 -3.21875 Z M 0.875 -0.9375 L 1.21875 -1.625 L 2.828125 -1.625 L 2.953125 -0.9375 Z M 0.875 -0.9375 "/></g></g></g><g fill="#545454" fill-opacity="1"><g transform="translate(134.663022, 216.476526)"><g><path d="M 2.765625 -0.703125 C 2.867188 -0.703125 2.953125 -0.664062 3.015625 -0.59375 C 3.085938 -0.53125 3.125 -0.445312 3.125 -0.34375 C 3.125 -0.25 3.085938 -0.164062 3.015625 -0.09375 C 2.953125 -0.03125 2.867188 0 2.765625 0 L 0.8125 0 C 0.707031 0 0.617188 -0.03125 0.546875 -0.09375 C 0.484375 -0.164062 0.453125 -0.253906 0.453125 -0.359375 L 0.453125 -3.828125 C 0.453125 -3.929688 0.488281 -4.019531 0.5625 -4.09375 C 0.632812 -4.164062 0.722656 -4.203125 0.828125 -4.203125 C 0.929688 -4.203125 1.019531 -4.164062 1.09375 -4.09375 C 1.164062 -4.019531 1.203125 -3.929688 1.203125 -3.828125 L 1.203125 -0.59375 L 1.0625 -0.703125 Z M 2.765625 -0.703125 "/></g></g></g><g fill="#545454" fill-opacity="1"><g transform="translate(138.035039, 216.476526)"><g><path d="M 2.765625 -0.703125 C 2.867188 -0.703125 2.953125 -0.664062 3.015625 -0.59375 C 3.085938 -0.53125 3.125 -0.445312 3.125 -0.34375 C 3.125 -0.25 3.085938 -0.164062 3.015625 -0.09375 C 2.953125 -0.03125 2.867188 0 2.765625 0 L 0.8125 0 C 0.707031 0 0.617188 -0.03125 0.546875 -0.09375 C 0.484375 -0.164062 0.453125 -0.253906 0.453125 -0.359375 L 0.453125 -3.828125 C 0.453125 -3.929688 0.488281 -4.019531 0.5625 -4.09375 C 0.632812 -4.164062 0.722656 -4.203125 0.828125 -4.203125 C 0.929688 -4.203125 1.019531 -4.164062 1.09375 -4.09375 C 1.164062 -4.019531 1.203125 -3.929688 1.203125 -3.828125 L 1.203125 -0.59375 L 1.0625 -0.703125 Z M 2.765625 -0.703125 "/></g></g></g><g fill="#545454" fill-opacity="1"><g transform="translate(141.407056, 216.476526)"><g><path d="M 0.8125 -4.203125 L 2.828125 -4.203125 C 2.929688 -4.203125 3.015625 -4.164062 3.078125 -4.09375 C 3.148438 -4.03125 3.1875 -3.945312 3.1875 -3.84375 C 3.1875 -3.75 3.148438 -3.671875 3.078125 -3.609375 C 3.015625 -3.546875 2.929688 -3.515625 2.828125 -3.515625 L 1.140625 -3.515625 L 1.203125 -3.609375 L 1.203125 -2.4375 L 1.15625 -2.484375 L 2.5625 -2.484375 C 2.664062 -2.484375 2.75 -2.453125 2.8125 -2.390625 C 2.882812 -2.328125 2.921875 -2.242188 2.921875 -2.140625 C 2.921875 -2.035156 2.882812 -1.953125 2.8125 -1.890625 C 2.75 -1.828125 2.664062 -1.796875 2.5625 -1.796875 L 1.171875 -1.796875 L 1.203125 -1.84375 L 1.203125 -0.640625 L 1.15625 -0.6875 L 2.828125 -0.6875 C 2.929688 -0.6875 3.015625 -0.648438 3.078125 -0.578125 C 3.148438 -0.515625 3.1875 -0.4375 3.1875 -0.34375 C 3.1875 -0.238281 3.148438 -0.15625 3.078125 -0.09375 C 3.015625 -0.03125 2.929688 0 2.828125 0 L 0.8125 0 C 0.707031 0 0.617188 -0.03125 0.546875 -0.09375 C 0.484375 -0.164062 0.453125 -0.253906 0.453125 -0.359375 L 0.453125 -3.828125 C 0.453125 -3.929688 0.484375 -4.019531 0.546875 -4.09375 C 0.617188 -4.164062 0.707031 -4.203125 0.8125 -4.203125 Z M 0.8125 -4.203125 "/></g></g></g><g fill="#545454" fill-opacity="1"><g transform="translate(144.83907, 216.476526)"><g><path d="M 0.875 0 C 0.769531 0 0.671875 -0.03125 0.578125 -0.09375 C 0.492188 -0.164062 0.453125 -0.253906 0.453125 -0.359375 L 0.453125 -3.828125 C 0.453125 -3.929688 0.484375 -4.019531 0.546875 -4.09375 C 0.617188 -4.164062 0.707031 -4.203125 0.8125 -4.203125 L 2.546875 -4.203125 C 2.753906 -4.203125 2.945312 -4.144531 3.125 -4.03125 C 3.3125 -3.925781 3.457031 -3.773438 3.5625 -3.578125 C 3.675781 -3.378906 3.734375 -3.15625 3.734375 -2.90625 C 3.734375 -2.757812 3.703125 -2.613281 3.640625 -2.46875 C 3.578125 -2.320312 3.492188 -2.191406 3.390625 -2.078125 C 3.285156 -1.960938 3.164062 -1.875 3.03125 -1.8125 L 3.046875 -1.9375 C 3.148438 -1.882812 3.238281 -1.816406 3.3125 -1.734375 C 3.394531 -1.648438 3.457031 -1.5625 3.5 -1.46875 C 3.539062 -1.375 3.5625 -1.269531 3.5625 -1.15625 C 3.582031 -1.0625 3.59375 -0.972656 3.59375 -0.890625 C 3.601562 -0.816406 3.617188 -0.753906 3.640625 -0.703125 C 3.660156 -0.648438 3.695312 -0.613281 3.75 -0.59375 C 3.832031 -0.539062 3.882812 -0.460938 3.90625 -0.359375 C 3.925781 -0.265625 3.90625 -0.179688 3.84375 -0.109375 C 3.800781 -0.0546875 3.742188 -0.0195312 3.671875 0 C 3.597656 0.0078125 3.523438 0.0078125 3.453125 0 C 3.390625 -0.0195312 3.335938 -0.0390625 3.296875 -0.0625 C 3.234375 -0.101562 3.164062 -0.160156 3.09375 -0.234375 C 3.03125 -0.316406 2.976562 -0.421875 2.9375 -0.546875 C 2.894531 -0.679688 2.875 -0.851562 2.875 -1.0625 C 2.875 -1.125 2.859375 -1.1875 2.828125 -1.25 C 2.804688 -1.3125 2.769531 -1.363281 2.71875 -1.40625 C 2.675781 -1.445312 2.617188 -1.476562 2.546875 -1.5 C 2.484375 -1.519531 2.410156 -1.53125 2.328125 -1.53125 L 1.109375 -1.53125 L 1.203125 -1.671875 L 1.203125 -0.359375 C 1.203125 -0.253906 1.171875 -0.164062 1.109375 -0.09375 C 1.054688 -0.03125 0.976562 0 0.875 0 Z M 1.109375 -2.140625 L 2.515625 -2.140625 C 2.585938 -2.140625 2.65625 -2.171875 2.71875 -2.234375 C 2.789062 -2.304688 2.847656 -2.398438 2.890625 -2.515625 C 2.929688 -2.628906 2.953125 -2.753906 2.953125 -2.890625 C 2.953125 -3.066406 2.90625 -3.210938 2.8125 -3.328125 C 2.71875 -3.453125 2.617188 -3.515625 2.515625 -3.515625 L 1.125 -3.515625 L 1.203125 -3.703125 L 1.203125 -2 Z M 1.109375 -2.140625 "/></g></g></g><g fill="#545454" fill-opacity="1"><g transform="translate(148.961092, 216.476526)"><g><path d="M 3.125 -4.21875 C 3.21875 -4.21875 3.300781 -4.179688 3.375 -4.109375 C 3.445312 -4.046875 3.484375 -3.957031 3.484375 -3.84375 C 3.484375 -3.8125 3.476562 -3.773438 3.46875 -3.734375 C 3.457031 -3.691406 3.441406 -3.65625 3.421875 -3.625 L 2.0625 -1.671875 L 2.171875 -2.09375 L 2.171875 -0.359375 C 2.171875 -0.253906 2.132812 -0.164062 2.0625 -0.09375 C 1.988281 -0.03125 1.90625 0 1.8125 0 C 1.71875 0 1.632812 -0.03125 1.5625 -0.09375 C 1.488281 -0.164062 1.453125 -0.253906 1.453125 -0.359375 L 1.453125 -2.046875 L 1.5 -1.84375 L 0.203125 -3.5625 C 0.171875 -3.613281 0.144531 -3.664062 0.125 -3.71875 C 0.113281 -3.769531 0.109375 -3.816406 0.109375 -3.859375 C 0.109375 -3.960938 0.148438 -4.046875 0.234375 -4.109375 C 0.316406 -4.179688 0.398438 -4.21875 0.484375 -4.21875 C 0.597656 -4.21875 0.695312 -4.160156 0.78125 -4.046875 L 1.9375 -2.453125 L 1.765625 -2.484375 L 2.828125 -4.03125 C 2.910156 -4.15625 3.007812 -4.21875 3.125 -4.21875 Z M 3.125 -4.21875 "/></g></g></g><g fill="#545454" fill-opacity="1"><g transform="translate(172.256647, 319.721831)"><g><path d="M 0.8125 -4.203125 L 2.828125 -4.203125 C 2.929688 -4.203125 3.015625 -4.164062 3.078125 -4.09375 C 3.148438 -4.03125 3.1875 -3.945312 3.1875 -3.84375 C 3.1875 -3.75 3.148438 -3.671875 3.078125 -3.609375 C 3.015625 -3.546875 2.929688 -3.515625 2.828125 -3.515625 L 1.140625 -3.515625 L 1.203125 -3.609375 L 1.203125 -2.4375 L 1.15625 -2.484375 L 2.5625 -2.484375 C 2.664062 -2.484375 2.75 -2.453125 2.8125 -2.390625 C 2.882812 -2.328125 2.921875 -2.242188 2.921875 -2.140625 C 2.921875 -2.035156 2.882812 -1.953125 2.8125 -1.890625 C 2.75 -1.828125 2.664062 -1.796875 2.5625 -1.796875 L 1.171875 -1.796875 L 1.203125 -1.84375 L 1.203125 -0.640625 L 1.15625 -0.6875 L 2.828125 -0.6875 C 2.929688 -0.6875 3.015625 -0.648438 3.078125 -0.578125 C 3.148438 -0.515625 3.1875 -0.4375 3.1875 -0.34375 C 3.1875 -0.238281 3.148438 -0.15625 3.078125 -0.09375 C 3.015625 -0.03125 2.929688 0 2.828125 0 L 0.8125 0 C 0.707031 0 0.617188 -0.03125 0.546875 -0.09375 C 0.484375 -0.164062 0.453125 -0.253906 0.453125 -0.359375 L 0.453125 -3.828125 C 0.453125 -3.929688 0.484375 -4.019531 0.546875 -4.09375 C 0.617188 -4.164062 0.707031 -4.203125 0.8125 -4.203125 Z M 0.8125 -4.203125 "/></g></g></g><g fill="#545454" fill-opacity="1"><g transform="translate(175.688661, 319.721831)"><g><path d="M 1.796875 0.0625 C 1.515625 0.0625 1.257812 0.0234375 1.03125 -0.046875 C 0.8125 -0.117188 0.601562 -0.238281 0.40625 -0.40625 C 0.351562 -0.457031 0.3125 -0.507812 0.28125 -0.5625 C 0.25 -0.613281 0.234375 -0.671875 0.234375 -0.734375 C 0.234375 -0.828125 0.265625 -0.90625 0.328125 -0.96875 C 0.398438 -1.039062 0.488281 -1.078125 0.59375 -1.078125 C 0.664062 -1.078125 0.734375 -1.054688 0.796875 -1.015625 C 0.941406 -0.890625 1.085938 -0.789062 1.234375 -0.71875 C 1.390625 -0.65625 1.578125 -0.625 1.796875 -0.625 C 1.941406 -0.625 2.078125 -0.644531 2.203125 -0.6875 C 2.328125 -0.738281 2.425781 -0.800781 2.5 -0.875 C 2.582031 -0.957031 2.625 -1.050781 2.625 -1.15625 C 2.625 -1.269531 2.585938 -1.367188 2.515625 -1.453125 C 2.441406 -1.535156 2.332031 -1.609375 2.1875 -1.671875 C 2.039062 -1.734375 1.851562 -1.78125 1.625 -1.8125 C 1.40625 -1.84375 1.210938 -1.890625 1.046875 -1.953125 C 0.878906 -2.015625 0.738281 -2.097656 0.625 -2.203125 C 0.519531 -2.304688 0.441406 -2.425781 0.390625 -2.5625 C 0.335938 -2.695312 0.3125 -2.851562 0.3125 -3.03125 C 0.3125 -3.289062 0.375 -3.507812 0.5 -3.6875 C 0.632812 -3.875 0.816406 -4.015625 1.046875 -4.109375 C 1.273438 -4.210938 1.53125 -4.265625 1.8125 -4.265625 C 2.070312 -4.265625 2.3125 -4.222656 2.53125 -4.140625 C 2.75 -4.066406 2.929688 -3.96875 3.078125 -3.84375 C 3.191406 -3.75 3.25 -3.644531 3.25 -3.53125 C 3.25 -3.4375 3.210938 -3.351562 3.140625 -3.28125 C 3.078125 -3.21875 3 -3.1875 2.90625 -3.1875 C 2.84375 -3.1875 2.785156 -3.203125 2.734375 -3.234375 C 2.671875 -3.285156 2.585938 -3.335938 2.484375 -3.390625 C 2.378906 -3.441406 2.265625 -3.484375 2.140625 -3.515625 C 2.023438 -3.546875 1.914062 -3.5625 1.8125 -3.5625 C 1.632812 -3.5625 1.484375 -3.539062 1.359375 -3.5 C 1.242188 -3.457031 1.15625 -3.394531 1.09375 -3.3125 C 1.039062 -3.238281 1.015625 -3.15625 1.015625 -3.0625 C 1.015625 -2.9375 1.046875 -2.832031 1.109375 -2.75 C 1.179688 -2.675781 1.285156 -2.617188 1.421875 -2.578125 C 1.554688 -2.535156 1.710938 -2.492188 1.890625 -2.453125 C 2.128906 -2.410156 2.335938 -2.359375 2.515625 -2.296875 C 2.703125 -2.234375 2.851562 -2.15625 2.96875 -2.0625 C 3.09375 -1.96875 3.1875 -1.847656 3.25 -1.703125 C 3.3125 -1.566406 3.34375 -1.394531 3.34375 -1.1875 C 3.34375 -0.925781 3.269531 -0.703125 3.125 -0.515625 C 2.976562 -0.328125 2.785156 -0.179688 2.546875 -0.078125 C 2.316406 0.015625 2.066406 0.0625 1.796875 0.0625 Z M 1.796875 0.0625 "/></g></g></g><g fill="#545454" fill-opacity="1"><g transform="translate(179.270677, 319.721831)"><g><path d="M 1.875 0 C 1.757812 0 1.664062 -0.03125 1.59375 -0.09375 C 1.519531 -0.164062 1.484375 -0.253906 1.484375 -0.359375 L 1.484375 -3.84375 L 2.265625 -3.84375 L 2.265625 -0.359375 C 2.265625 -0.253906 2.226562 -0.164062 2.15625 -0.09375 C 2.082031 -0.03125 1.988281 0 1.875 0 Z M 0.546875 -3.515625 C 0.441406 -3.515625 0.351562 -3.546875 0.28125 -3.609375 C 0.21875 -3.671875 0.1875 -3.753906 0.1875 -3.859375 C 0.1875 -3.960938 0.21875 -4.046875 0.28125 -4.109375 C 0.351562 -4.171875 0.441406 -4.203125 0.546875 -4.203125 L 3.203125 -4.203125 C 3.304688 -4.203125 3.394531 -4.171875 3.46875 -4.109375 C 3.539062 -4.046875 3.578125 -3.960938 3.578125 -3.859375 C 3.578125 -3.753906 3.539062 -3.671875 3.46875 -3.609375 C 3.394531 -3.546875 3.304688 -3.515625 3.203125 -3.515625 Z M 0.546875 -3.515625 "/></g></g></g><g fill="#545454" fill-opacity="1"><g transform="translate(183.026695, 319.721831)"><g><path d="M 2.25 -4.203125 C 2.539062 -4.203125 2.796875 -4.144531 3.015625 -4.03125 C 3.242188 -3.925781 3.429688 -3.773438 3.578125 -3.578125 C 3.734375 -3.390625 3.847656 -3.164062 3.921875 -2.90625 C 4.003906 -2.65625 4.046875 -2.382812 4.046875 -2.09375 C 4.046875 -1.707031 3.972656 -1.351562 3.828125 -1.03125 C 3.691406 -0.71875 3.488281 -0.46875 3.21875 -0.28125 C 2.957031 -0.09375 2.632812 0 2.25 0 L 0.8125 0 C 0.707031 0 0.617188 -0.03125 0.546875 -0.09375 C 0.484375 -0.164062 0.453125 -0.253906 0.453125 -0.359375 L 0.453125 -3.828125 C 0.453125 -3.929688 0.484375 -4.019531 0.546875 -4.09375 C 0.617188 -4.164062 0.707031 -4.203125 0.8125 -4.203125 Z M 2.1875 -0.6875 C 2.4375 -0.6875 2.640625 -0.75 2.796875 -0.875 C 2.960938 -1.007812 3.082031 -1.179688 3.15625 -1.390625 C 3.226562 -1.609375 3.265625 -1.84375 3.265625 -2.09375 C 3.265625 -2.28125 3.242188 -2.457031 3.203125 -2.625 C 3.160156 -2.800781 3.09375 -2.953125 3 -3.078125 C 2.914062 -3.210938 2.804688 -3.316406 2.671875 -3.390625 C 2.535156 -3.472656 2.375 -3.515625 2.1875 -3.515625 L 1.140625 -3.515625 L 1.203125 -3.5625 L 1.203125 -0.625 L 1.15625 -0.6875 Z M 2.1875 -0.6875 "/></g></g></g><g fill="#545454" fill-opacity="1"><g transform="translate(187.316717, 319.721831)"><g/></g></g><g fill="#545454" fill-opacity="1"><g transform="translate(188.996729, 319.721831)"><g><path d="M 2.75 -0.65625 C 2.84375 -0.65625 2.921875 -0.625 2.984375 -0.5625 C 3.046875 -0.5 3.078125 -0.421875 3.078125 -0.328125 C 3.078125 -0.234375 3.046875 -0.15625 2.984375 -0.09375 C 2.921875 -0.03125 2.84375 0 2.75 0 L 0.703125 0 C 0.597656 0 0.515625 -0.03125 0.453125 -0.09375 C 0.398438 -0.15625 0.375 -0.238281 0.375 -0.34375 C 0.375 -0.4375 0.410156 -0.523438 0.484375 -0.609375 L 1.78125 -2 C 1.9375 -2.164062 2.054688 -2.332031 2.140625 -2.5 C 2.222656 -2.664062 2.265625 -2.8125 2.265625 -2.9375 C 2.265625 -3.132812 2.207031 -3.289062 2.09375 -3.40625 C 1.976562 -3.53125 1.820312 -3.59375 1.625 -3.59375 C 1.550781 -3.59375 1.472656 -3.570312 1.390625 -3.53125 C 1.316406 -3.5 1.242188 -3.453125 1.171875 -3.390625 C 1.097656 -3.328125 1.023438 -3.253906 0.953125 -3.171875 C 0.910156 -3.109375 0.863281 -3.066406 0.8125 -3.046875 C 0.769531 -3.035156 0.726562 -3.03125 0.6875 -3.03125 C 0.59375 -3.03125 0.507812 -3.0625 0.4375 -3.125 C 0.363281 -3.195312 0.328125 -3.273438 0.328125 -3.359375 C 0.328125 -3.429688 0.347656 -3.5 0.390625 -3.5625 C 0.441406 -3.625 0.5 -3.6875 0.5625 -3.75 C 0.664062 -3.851562 0.78125 -3.941406 0.90625 -4.015625 C 1.03125 -4.097656 1.15625 -4.160156 1.28125 -4.203125 C 1.414062 -4.242188 1.546875 -4.265625 1.671875 -4.265625 C 1.941406 -4.265625 2.175781 -4.207031 2.375 -4.09375 C 2.570312 -3.988281 2.722656 -3.835938 2.828125 -3.640625 C 2.941406 -3.453125 3 -3.226562 3 -2.96875 C 3 -2.75 2.929688 -2.503906 2.796875 -2.234375 C 2.671875 -1.960938 2.5 -1.707031 2.28125 -1.46875 L 1.46875 -0.609375 L 1.390625 -0.65625 Z M 2.75 -0.65625 "/></g></g></g><g fill="#545454" fill-opacity="1"><g transform="translate(192.410745, 319.721831)"><g><path d="M 1.84375 0.0625 C 1.5 0.0625 1.207031 -0.0234375 0.96875 -0.203125 C 0.726562 -0.390625 0.546875 -0.644531 0.421875 -0.96875 C 0.296875 -1.300781 0.234375 -1.675781 0.234375 -2.09375 C 0.234375 -2.519531 0.296875 -2.894531 0.421875 -3.21875 C 0.546875 -3.550781 0.726562 -3.804688 0.96875 -3.984375 C 1.207031 -4.171875 1.5 -4.265625 1.84375 -4.265625 C 2.1875 -4.265625 2.476562 -4.171875 2.71875 -3.984375 C 2.957031 -3.804688 3.132812 -3.550781 3.25 -3.21875 C 3.375 -2.894531 3.4375 -2.519531 3.4375 -2.09375 C 3.4375 -1.675781 3.375 -1.300781 3.25 -0.96875 C 3.132812 -0.644531 2.957031 -0.390625 2.71875 -0.203125 C 2.476562 -0.0234375 2.1875 0.0625 1.84375 0.0625 Z M 1.84375 -0.65625 C 2.007812 -0.65625 2.148438 -0.707031 2.265625 -0.8125 C 2.390625 -0.925781 2.484375 -1.085938 2.546875 -1.296875 C 2.617188 -1.515625 2.65625 -1.78125 2.65625 -2.09375 C 2.65625 -2.425781 2.617188 -2.695312 2.546875 -2.90625 C 2.484375 -3.113281 2.390625 -3.269531 2.265625 -3.375 C 2.148438 -3.488281 2.007812 -3.546875 1.84375 -3.546875 C 1.675781 -3.546875 1.53125 -3.488281 1.40625 -3.375 C 1.28125 -3.269531 1.179688 -3.113281 1.109375 -2.90625 C 1.046875 -2.695312 1.015625 -2.425781 1.015625 -2.09375 C 1.015625 -1.78125 1.046875 -1.515625 1.109375 -1.296875 C 1.179688 -1.085938 1.28125 -0.925781 1.40625 -0.8125 C 1.53125 -0.707031 1.675781 -0.65625 1.84375 -0.65625 Z M 1.84375 -0.65625 "/></g></g></g><g fill="#545454" fill-opacity="1"><g transform="translate(196.094765, 319.721831)"><g><path d="M 2.75 -0.65625 C 2.84375 -0.65625 2.921875 -0.625 2.984375 -0.5625 C 3.046875 -0.5 3.078125 -0.421875 3.078125 -0.328125 C 3.078125 -0.234375 3.046875 -0.15625 2.984375 -0.09375 C 2.921875 -0.03125 2.84375 0 2.75 0 L 0.703125 0 C 0.597656 0 0.515625 -0.03125 0.453125 -0.09375 C 0.398438 -0.15625 0.375 -0.238281 0.375 -0.34375 C 0.375 -0.4375 0.410156 -0.523438 0.484375 -0.609375 L 1.78125 -2 C 1.9375 -2.164062 2.054688 -2.332031 2.140625 -2.5 C 2.222656 -2.664062 2.265625 -2.8125 2.265625 -2.9375 C 2.265625 -3.132812 2.207031 -3.289062 2.09375 -3.40625 C 1.976562 -3.53125 1.820312 -3.59375 1.625 -3.59375 C 1.550781 -3.59375 1.472656 -3.570312 1.390625 -3.53125 C 1.316406 -3.5 1.242188 -3.453125 1.171875 -3.390625 C 1.097656 -3.328125 1.023438 -3.253906 0.953125 -3.171875 C 0.910156 -3.109375 0.863281 -3.066406 0.8125 -3.046875 C 0.769531 -3.035156 0.726562 -3.03125 0.6875 -3.03125 C 0.59375 -3.03125 0.507812 -3.0625 0.4375 -3.125 C 0.363281 -3.195312 0.328125 -3.273438 0.328125 -3.359375 C 0.328125 -3.429688 0.347656 -3.5 0.390625 -3.5625 C 0.441406 -3.625 0.5 -3.6875 0.5625 -3.75 C 0.664062 -3.851562 0.78125 -3.941406 0.90625 -4.015625 C 1.03125 -4.097656 1.15625 -4.160156 1.28125 -4.203125 C 1.414062 -4.242188 1.546875 -4.265625 1.671875 -4.265625 C 1.941406 -4.265625 2.175781 -4.207031 2.375 -4.09375 C 2.570312 -3.988281 2.722656 -3.835938 2.828125 -3.640625 C 2.941406 -3.453125 3 -3.226562 3 -2.96875 C 3 -2.75 2.929688 -2.503906 2.796875 -2.234375 C 2.671875 -1.960938 2.5 -1.707031 2.28125 -1.46875 L 1.46875 -0.609375 L 1.390625 -0.65625 Z M 2.75 -0.65625 "/></g></g></g><g fill="#545454" fill-opacity="1"><g transform="translate(199.508782, 319.721831)"><g><path d="M 0.671875 -0.84375 C 0.703125 -0.84375 0.738281 -0.835938 0.78125 -0.828125 C 0.832031 -0.816406 0.882812 -0.789062 0.9375 -0.75 C 1 -0.695312 1.078125 -0.648438 1.171875 -0.609375 C 1.265625 -0.578125 1.375 -0.5625 1.5 -0.5625 C 1.625 -0.5625 1.738281 -0.59375 1.84375 -0.65625 C 1.957031 -0.71875 2.050781 -0.804688 2.125 -0.921875 C 2.195312 -1.035156 2.234375 -1.171875 2.234375 -1.328125 C 2.234375 -1.472656 2.203125 -1.597656 2.140625 -1.703125 C 2.078125 -1.804688 1.992188 -1.882812 1.890625 -1.9375 C 1.785156 -1.988281 1.675781 -2.015625 1.5625 -2.015625 C 1.476562 -2.015625 1.40625 -2.003906 1.34375 -1.984375 C 1.289062 -1.972656 1.234375 -1.957031 1.171875 -1.9375 C 1.117188 -1.914062 1.054688 -1.90625 0.984375 -1.90625 C 0.898438 -1.90625 0.832031 -1.9375 0.78125 -2 C 0.726562 -2.0625 0.703125 -2.140625 0.703125 -2.234375 C 0.703125 -2.285156 0.710938 -2.332031 0.734375 -2.375 C 0.753906 -2.425781 0.785156 -2.476562 0.828125 -2.53125 L 1.890625 -3.640625 L 2.046875 -3.515625 L 0.578125 -3.515625 C 0.484375 -3.515625 0.398438 -3.546875 0.328125 -3.609375 C 0.265625 -3.671875 0.234375 -3.75 0.234375 -3.84375 C 0.234375 -3.9375 0.265625 -4.015625 0.328125 -4.078125 C 0.398438 -4.140625 0.484375 -4.171875 0.578125 -4.171875 L 2.40625 -4.171875 C 2.53125 -4.171875 2.625 -4.132812 2.6875 -4.0625 C 2.75 -4 2.78125 -3.914062 2.78125 -3.8125 C 2.78125 -3.757812 2.765625 -3.707031 2.734375 -3.65625 C 2.710938 -3.601562 2.679688 -3.554688 2.640625 -3.515625 L 1.578125 -2.375 L 1.421875 -2.59375 C 1.460938 -2.601562 1.519531 -2.613281 1.59375 -2.625 C 1.675781 -2.644531 1.742188 -2.65625 1.796875 -2.65625 C 2.023438 -2.65625 2.226562 -2.59375 2.40625 -2.46875 C 2.582031 -2.351562 2.71875 -2.195312 2.8125 -2 C 2.90625 -1.8125 2.953125 -1.601562 2.953125 -1.375 C 2.953125 -1.082031 2.882812 -0.828125 2.75 -0.609375 C 2.625 -0.390625 2.441406 -0.222656 2.203125 -0.109375 C 1.960938 0.00390625 1.679688 0.0625 1.359375 0.0625 C 1.210938 0.0625 1.066406 0.0390625 0.921875 0 C 0.773438 -0.03125 0.648438 -0.078125 0.546875 -0.140625 C 0.453125 -0.179688 0.390625 -0.234375 0.359375 -0.296875 C 0.335938 -0.359375 0.328125 -0.414062 0.328125 -0.46875 C 0.328125 -0.550781 0.359375 -0.632812 0.421875 -0.71875 C 0.484375 -0.800781 0.566406 -0.84375 0.671875 -0.84375 Z M 0.671875 -0.84375 "/></g></g></g></svg>